<svg width="19" height="23" viewBox="0 0 19 23" fill="none" xmlns="http://www.w3.org/2000/svg"><path d="M1.82666 9.00208H16.6593V21.34C16.6593 22.3484 15.6622 23.0538 14.7113 22.718L9.24298 20.787L3.77461 22.718C2.82378 23.0538 1.82666 22.3484 1.82666 21.34V9.00208Z" fill="#CE9969"/><path d="M16.6094 14.679C13.6924 18.7474 8.02951 19.6808 3.96106 16.7638C-0.107377 13.8468 -1.04078 8.18393 1.87625 4.11548C4.79328 0.0470419 10.4561 -0.886362 14.5246 2.03067C18.593 4.9477 19.5264 10.6105 16.6094 14.679Z" fill="#FFD900"/><path d="M3.96106 16.7639C8.02951 19.6809 13.6924 18.7475 16.6094 14.6791L1.87625 4.1156C-1.04078 8.18404 -0.107377 13.8469 3.96106 16.7639Z" fill="#FFE346"/><path d="M14.9153 9.39721C14.9153 12.5301 12.3756 15.0699 9.24267 15.0699C6.10976 15.0699 3.57003 12.5301 3.57003 9.39721C3.57003 6.2643 6.10976 3.72457 9.24267 3.72457C12.3756 3.72457 14.9153 6.2643 14.9153 9.39721Z" stroke="#FFC700" stroke-width="1.83928"/><path d="M11.4074 6.47638C11.122 6.19103 11.122 5.72839 11.4074 5.44304L12.7048 4.14565C12.9901 3.8603 13.4527 3.8603 13.7381 4.14565L15.0355 5.44304C15.3208 5.72839 15.3208 6.19103 15.0355 6.47638L13.7381 7.77376C13.4527 8.05911 12.9901 8.05911 12.7048 7.77376L11.4074 6.47638Z" fill="white"/></svg>